<svg width="117" height="29" viewBox="0 0 117 29" fill="none" xmlns="http://www.w3.org/2000/svg">
<path d="M15.9827 29C13.7562 29 11.702 28.6415 9.82011 27.9245C7.93821 27.2074 6.29485 26.1983 4.89005 24.897C3.51175 23.5691 2.43827 22.0288 1.6696 20.2761C0.900935 18.5233 0.516602 16.598 0.516602 14.5C0.516602 12.402 0.900935 10.4766 1.6696 8.7239C2.43827 6.97115 3.51175 5.44414 4.89005 4.14286C6.29485 2.81502 7.93821 1.79258 9.82011 1.07555C11.702 0.358516 13.7562 0 15.9827 0C18.2357 0 20.2899 0.358516 22.1453 1.07555C24.0272 1.79258 25.6573 2.81502 27.0356 4.14286C28.4139 5.44414 29.4874 6.97115 30.256 8.7239C31.0512 10.4766 31.4488 12.402 31.4488 14.5C31.4488 16.598 31.0512 18.5366 30.256 20.3159C29.4874 22.0687 28.4139 23.5957 27.0356 24.897C25.6573 26.1983 24.0272 27.2074 22.1453 27.9245C20.2899 28.6415 18.2357 29 15.9827 29ZM15.9827 22.467C17.0429 22.467 18.0236 22.2811 18.9248 21.9093C19.8525 21.5375 20.6477 21.0064 21.3103 20.3159C21.9995 19.5989 22.5296 18.7491 22.9007 17.7665C23.2983 16.7839 23.4971 15.6951 23.4971 14.5C23.4971 13.2784 23.2983 12.1896 22.9007 11.2335C22.5296 10.2509 21.9995 9.41438 21.3103 8.7239C20.6477 8.00687 19.8525 7.46245 18.9248 7.09066C18.0236 6.71886 17.0429 6.53297 15.9827 6.53297C14.9225 6.53297 13.9285 6.71886 13.0008 7.09066C12.0996 7.46245 11.3044 8.00687 10.6153 8.7239C9.95264 9.41438 9.42253 10.2509 9.02494 11.2335C8.65386 12.1896 8.46832 13.2784 8.46832 14.5C8.46832 15.6951 8.65386 16.7839 9.02494 17.7665C9.42253 18.7491 9.95264 19.5989 10.6153 20.3159C11.3044 21.0064 12.0996 21.5375 13.0008 21.9093C13.9285 22.2811 14.9225 22.467 15.9827 22.467Z" fill="#275D8D"/>
<path d="M35.5719 28.4423V0.557692H49.8054C53.4632 0.557692 56.1933 1.23489 57.9957 2.58928C59.7981 3.91712 60.6993 5.66987 60.6993 7.84753C60.6993 9.28159 60.315 10.543 59.5463 11.6319C58.8041 12.6941 57.7439 13.544 56.3656 14.1813C55.0138 14.7921 53.397 15.0975 51.5151 15.0975L52.3102 13.1854C54.2717 13.1854 55.9813 13.4908 57.4391 14.1016C58.8969 14.6859 60.0234 15.549 60.8186 16.6909C61.6403 17.8063 62.0511 19.174 62.0511 20.794C62.0511 23.2106 61.0704 25.0962 59.109 26.4506C57.174 27.7784 54.3379 28.4423 50.6006 28.4423H35.5719ZM43.3646 22.7459H49.9645C51.3163 22.7459 52.3367 22.5201 53.0259 22.0687C53.7415 21.5907 54.0994 20.8736 54.0994 19.9176C54.0994 18.9615 53.7415 18.2578 53.0259 17.8063C52.3367 17.3283 51.3163 17.0893 49.9645 17.0893H42.8079V11.6319H48.7717C50.097 11.6319 51.091 11.4061 51.7536 10.9547C52.4163 10.5032 52.7476 9.82601 52.7476 8.92308C52.7476 8.02015 52.4163 7.35623 51.7536 6.93132C51.091 6.47985 50.097 6.25412 48.7717 6.25412H43.3646V22.7459Z" fill="#275D8D"/>
<path d="M80.0043 29C77.8043 29 75.7634 28.6548 73.8814 27.9643C72.026 27.2473 70.4092 26.2381 69.0309 24.9368C67.6791 23.6355 66.6189 22.1085 65.8502 20.3558C65.0815 18.5765 64.6972 16.6245 64.6972 14.5C64.6972 12.3755 65.0815 10.4368 65.8502 8.68407C66.6189 6.90476 67.6791 5.36447 69.0309 4.06319C70.4092 2.76191 72.026 1.76603 73.8814 1.07555C75.7634 0.358516 77.8043 0 80.0043 0C82.5753 0 84.8681 0.451465 86.8825 1.3544C88.9234 2.25733 90.6198 3.55861 91.9716 5.25824L86.962 9.79945C86.0608 8.73718 85.0669 7.9272 83.9801 7.3695C82.9199 6.81181 81.7271 6.53297 80.4019 6.53297C79.2621 6.53297 78.2151 6.71886 77.2609 7.09066C76.3067 7.46245 75.485 8.00687 74.7959 8.7239C74.1333 9.41438 73.6031 10.2509 73.2056 11.2335C72.8345 12.2161 72.6489 13.3049 72.6489 14.5C72.6489 15.6951 72.8345 16.7839 73.2056 17.7665C73.6031 18.7491 74.1333 19.5989 74.7959 20.3159C75.485 21.0064 76.3067 21.5375 77.2609 21.9093C78.2151 22.2811 79.2621 22.467 80.4019 22.467C81.7271 22.467 82.9199 22.1882 83.9801 21.6305C85.0669 21.0728 86.0608 20.2628 86.962 19.2005L91.9716 23.7418C90.6198 25.4148 88.9234 26.7161 86.8825 27.6456C84.8681 28.5485 82.5753 29 80.0043 29Z" fill="#275D8D"/>
<path d="M95.4815 28.4423V0.557692H103.354V22.1882H116.633V28.4423H95.4815Z" fill="#275D8D"/>
</svg>
